<?xml version="1.0" encoding="UTF-8" standalone="no" ?>
<!DOCTYPE svg PUBLIC "-//W3C//DTD SVG 1.1//EN" "http://www.w3.org/Graphics/SVG/1.1/DTD/svg11.dtd">
<svg xmlns="http://www.w3.org/2000/svg" xmlns:xlink="http://www.w3.org/1999/xlink" version="1.1" width="1080" height="1080" viewBox="0 0 1080 1080" xml:space="preserve">
<desc>Created with Fabric.js 5.2.4</desc>
<defs>
</defs>
<g transform="matrix(1 0 0 1 540 540)" id="6d75b5ff-dcee-46c7-a678-01a91bc58797"  >
<rect style="stroke: none; stroke-width: 1; stroke-dasharray: none; stroke-linecap: butt; stroke-dashoffset: 0; stroke-linejoin: miter; stroke-miterlimit: 4; fill: rgb(255,255,255); fill-rule: nonzero; opacity: 1; visibility: hidden;" vector-effect="non-scaling-stroke"  x="-540" y="-540" rx="0" ry="0" width="1080" height="1080" />
</g>
<g transform="matrix(1 0 0 1 540 540)" id="9acc6613-c0a0-4e7b-ac2a-7ac71c0001ce"  >
</g>
<g transform="matrix(1.13 0 0 1.13 587.21 600.22)"  >
<path style="stroke: none; stroke-width: 1; stroke-dasharray: none; stroke-linecap: butt; stroke-dashoffset: 0; stroke-linejoin: miter; stroke-miterlimit: 4; fill: rgb(179,153,113); fill-rule: nonzero; opacity: 1;" vector-effect="non-scaling-stroke"  transform=" translate(-539.1, -553.35)" d="M 977.5 579 L 100.7 579 C 100 579 99.4 578.4 99.4 577.7 L 99.4 529 C 99.4 528.3 100 527.7 100.7 527.7 L 977.5 527.7 C 978.2 527.7 978.8 528.3000000000001 978.8 529 L 978.8 577.7 C 978.7 578.4 978.2 579 977.5 579 z" stroke-linecap="round" />
</g>
<g transform="matrix(1.13 0 0 1.13 541.01 301.86)"  >
<path style="stroke: none; stroke-width: 1; stroke-dasharray: none; stroke-linecap: butt; stroke-dashoffset: 0; stroke-linejoin: miter; stroke-miterlimit: 4; fill: rgb(235,202,148); fill-rule: nonzero; opacity: 1;" vector-effect="non-scaling-stroke"  transform=" translate(-500.05, -288.45)" d="M 64.3 494.4 C 64.3 249.6 254.1 82.5 500 82.5 C 745.9 82.5 935.8 249.6 935.8 494.4 L 64.3 494.4 z" stroke-linecap="round" />
</g>
<g transform="matrix(1.13 0 0 1.13 503.58 695.63)"  >
<path style="stroke: none; stroke-width: 1; stroke-dasharray: none; stroke-linecap: butt; stroke-dashoffset: 0; stroke-linejoin: miter; stroke-miterlimit: 4; fill: rgb(179,153,113); fill-rule: nonzero; opacity: 1;" vector-effect="non-scaling-stroke"  transform=" translate(-466.85, -637.95)" d="M 911.2 663.6 L 22.5 663.6 C 21.8 663.6 21.2 663 21.2 662.3000000000001 L 21.2 613.6 C 21.2 612.9 21.8 612.3000000000001 22.5 612.3000000000001 L 911.2 612.3000000000001 C 911.9000000000001 612.3000000000001 912.5 612.9000000000001 912.5 613.6 L 912.5 662.3000000000001 C 912.4 663.1 911.9 663.6 911.2 663.6 z" stroke-linecap="round" />
</g>
<g transform="matrix(1.13 0 0 1.13 540.36 981.99)"  >
<path style="stroke: none; stroke-width: 1; stroke-dasharray: none; stroke-linecap: butt; stroke-dashoffset: 0; stroke-linejoin: miter; stroke-miterlimit: 4; fill: rgb(179,153,113); fill-rule: nonzero; opacity: 1;" vector-effect="non-scaling-stroke"  transform=" translate(-499.95, -891.85)" d="M 688.9 917.5 L 311.1 917.5 C 310.40000000000003 917.5 309.8 916.9 309.8 916.2 L 309.8 867.5 C 309.8 866.8 310.40000000000003 866.2 311.1 866.2 L 688.8 866.2 C 689.5 866.2 690.0999999999999 866.8000000000001 690.0999999999999 867.5 L 690.0999999999999 916.2 C 690.1 917 689.6 917.5 688.9 917.5 z" stroke-linecap="round" />
</g>
<g transform="matrix(1.13 0 0 1.13 499.14 886.57)"  >
<path style="stroke: none; stroke-width: 1; stroke-dasharray: none; stroke-linecap: butt; stroke-dashoffset: 0; stroke-linejoin: miter; stroke-miterlimit: 4; fill: rgb(179,153,113); fill-rule: nonzero; opacity: 1;" vector-effect="non-scaling-stroke"  transform=" translate(-463.15, -807.25)" d="M 782.8 832.9 L 143.6 832.9 C 142.9 832.9 142.29999999999998 832.3 142.29999999999998 831.6 L 142.29999999999998 782.9 C 142.29999999999998 782.1999999999999 142.89999999999998 781.6 143.6 781.6 L 782.7 781.6 C 783.4000000000001 781.6 784 782.2 784 782.9 L 784 831.6 C 784 832.3 783.5 832.9 782.8 832.9 z" stroke-linecap="round" />
</g>
<g transform="matrix(1.13 0 0 1.13 575.37 791.16)"  >
<path style="stroke: none; stroke-width: 1; stroke-dasharray: none; stroke-linecap: butt; stroke-dashoffset: 0; stroke-linejoin: miter; stroke-miterlimit: 4; fill: rgb(179,153,113); fill-rule: nonzero; opacity: 1;" vector-effect="non-scaling-stroke"  transform=" translate(-530.55, -722.65)" d="M 951.2 748.3 L 110 748.3 C 109.3 748.3 108.7 747.6999999999999 108.7 747 L 108.7 698.3 C 108.7 697.5999999999999 109.3 697 110 697 L 951.1 697 C 951.8000000000001 697 952.4 697.6 952.4 698.3 L 952.4 747 C 952.4 747.7 951.8 748.3 951.2 748.3 z" stroke-linecap="round" />
</g>
</svg>